User Type,Username,Date,Text
[V],Zen_Bud,2012-03-20T16:02Z,"The.Others.2001.1080p.BRRiP.x264.AC-3.Multi[24]_SuB.mkv-Zen_Bud

Format                                   : Matroska
Format version                           : Version 2
File size                                : 1.69 GiB
Duration                                 : 1h 44mn
Overall bit rate                         : 2 323 Kbps
Writing application                      : mkvmerge v5.4.0 ('Piper') 
Writing library                          : libebml v1.2.3 + libmatroska v1.3.0

Video

Format                                   : AVC
Format profile                           : Main@L4.0
Format settings, CABAC                   : Yes
Format settings, ReFrames                : 4 frames
Codec ID                                 : V_MPEG4
Duration                                 : 1h 44mn
Bit rate                                 : 2 000 Kbps
Width                                    : 1 794 pixels
Height                                   : 1 078 pixels
Display aspect ratio                     : 1.664
Frame rate mode                          : Variable
Frame rate                               : 24.000 fps
Color space                              : YUV
Chroma subsampling                       : 4:2:0
Bit depth                                : 8 bits
Scan type                                : Progressive
Bits/(Pixel*Frame)                       : 0.043
Stream size                              : 1.43 GiB (84%)
Writing library                          : x264 core 120
Encoding settings                        : cabac=1 / ref=1 / deblock=1:0:0 / analyse=0x1:0x111 

Audio

Format                                   : AC-3
Duration                                 : 1h 44mn
Bit rate                                 : 320 Kbps
Channel(s)                               : 6 channels
Channel positions                        : Front: L C R, Side: L R, LFE
Sampling rate                            : 48.0 KHz
Bit depth                                : 16 bits
Compression mode                         : Lossy
Stream size                              : 239 MiB (14%)
Language                                 : English
Default                                  : Yes
Forced                                   : No

Text #1
Language                                 : Arabic

Text #2
Language                                 : Bulgarian

Text #3
Language                                 : Chinese

Text #4
Language                                 : Croatian

Text #5
Language                                 : Czech

Text #6
Language                                 : Danish

Text #7
Language                                 : Dutch

Text #8
Language                                 : English

Text #9
Language                                 : Estonian

Text #10
Language                                 : Finnish

Text #11
Language                                 : French

Text #12
Language                                 : German

Text #13
Language                                 : Greek

Text #14
Language                                 : Hebrew

Text #15
Language                                 : Hungarian

Text #16
Language                                 : Italian

Text #17
Language                                 : Japanese

Text #18
Language                                 : Norwegian

Text #19
Language                                 : Polish

Text #20
Language                                 : Portuguese

Text #21
Language                                 : Russian

Text #22
Language                                 : Spanish

Text #23
Language                                 : Swedish

Text #24
Language                                 : Turkish

"
[V],Zen_Bud,2012-03-20T16:03Z,"Screens:
http://i.imgbox.com/aapeutnu.png

http://i.imgbox.com/aajZqHRU.png

http://i.imgbox.com/aauIGSYS.png

http://i.imgbox.com/aabJ5s3R.png

http://i.imgbox.com/aaofKEQT.png

http://i.imgbox.com/aaxY2X24.png"
,tingya,2012-03-20T17:47Z,Thnx
,muLineZu,2012-03-20T19:24Z,"Thank you! Good to see you back in business, so to say, been missing your highres encodings."
